<?xml version="1.0" encoding="UTF-8" standalone="no"?>
<svg width="108px" height="57px" viewBox="0 0 108 57" version="1.1" xmlns="http://www.w3.org/2000/svg" xmlns:xlink="http://www.w3.org/1999/xlink">
    <!-- Generator: Sketch 39.1 (31720) - http://www.bohemiancoding.com/sketch -->
    <title>Group 4</title>
    <desc>Created with Sketch.</desc>
    <defs></defs>
    <g id="Basis" stroke="none" stroke-width="1" fill="none" fill-rule="evenodd">
        <g id="Single-Episode-and-Series" transform="translate(-71.000000, -1969.000000)" fill="#0101FF">
            <g id="z" transform="translate(0.000000, 1938.000000)">
                <g id="Group-4" transform="translate(71.000000, 31.000000)">
                    <path d="M54.5,33.5 L54.5,56.5" id="Line" stroke="#0101FF" stroke-linecap="square"></path>
                    <path id="Line-decoration-1" d="M54.5,56.5 L57.5,45.7 L51.5,45.7 L54.5,56.5 Z" stroke="#0101FF" stroke-linecap="square"></path>
                    <path d="M6.372,0.2 L5.294,0.2 L5.294,3.504 C4.86,3.098 4.244,2.846 3.656,2.846 L3.488,2.846 C2.018,2.846 0.828,3.994 0.828,5.422 L0.828,7.564 C0.828,8.992 2.018,10.14 3.488,10.14 L3.684,10.14 C4.272,10.14 4.888,9.944 5.322,9.51 L5.322,10 L6.372,10 L6.372,0.2 Z M1.976,5.38 C1.976,4.54 2.648,3.868 3.53,3.868 L3.684,3.868 C4.566,3.868 5.252,4.54 5.252,5.38 L5.252,7.62 C5.252,8.46 4.566,9.146 3.684,9.146 L3.53,9.146 C2.648,9.146 1.976,8.474 1.976,7.634 L1.976,5.38 Z M14.772,5.422 C14.772,3.994 13.582,2.846 12.112,2.846 L11.874,2.846 C10.39,2.846 9.214,3.994 9.214,5.422 L9.214,7.55 C9.214,8.978 10.39,10.14 11.874,10.14 L12.112,10.14 C13.582,10.14 14.772,8.992 14.772,7.564 L14.772,5.422 Z M13.624,7.634 C13.624,8.474 12.952,9.146 12.07,9.146 L11.916,9.146 C11.034,9.146 10.348,8.46 10.348,7.62 L10.348,5.38 C10.348,4.54 11.034,3.868 11.916,3.868 L12.07,3.868 C12.952,3.868 13.624,4.54 13.624,5.38 L13.624,7.634 Z M23.158,10 L23.158,5.422 C23.158,3.994 22.066,2.86 20.526,2.86 C19.7,2.86 19.056,3.238 18.72,3.574 L18.72,3 L17.628,3 L17.628,10 L18.748,10 L18.748,5.31 C18.748,4.624 19.56,3.868 20.47,3.868 C21.38,3.868 22.024,4.54 22.024,5.38 L22.024,10 L23.158,10 Z M27.904,3.196 L28.688,3.196 L29.696,0.2 L28.408,0.2 L27.904,3.196 Z M35.338,7.886 C35.338,9.132 36.22,10.154 37.746,10.154 L37.886,10.154 C39.482,10.154 40.35,9.132 40.35,7.802 L39.202,7.802 C39.202,8.502 38.628,9.132 37.928,9.132 L37.788,9.132 C37.018,9.132 36.472,8.502 36.472,7.802 L36.472,4.008 L40.028,4.008 L40.028,3 L36.472,3 L36.472,1.012 L35.338,1.012 L35.338,3 L34.05,3 L34.05,4.008 L35.338,4.008 L35.338,7.886 Z M51.228,12.52 L52.306,12.52 L52.306,9.496 C52.74,9.902 53.356,10.154 53.944,10.154 L54.112,10.154 C55.582,10.154 56.772,8.992 56.772,7.564 L56.772,5.422 C56.772,3.994 55.582,2.86 54.112,2.86 L53.916,2.86 C53.328,2.86 52.712,3.056 52.278,3.49 L52.278,3 L51.228,3 L51.228,12.52 Z M55.624,7.62 C55.624,8.46 54.952,9.132 54.07,9.132 L53.916,9.132 C53.034,9.132 52.348,8.46 52.348,7.62 L52.348,5.38 C52.348,4.54 53.034,3.854 53.916,3.854 L54.07,3.854 C54.952,3.854 55.624,4.526 55.624,5.366 L55.624,7.62 Z M59.628,3 L59.628,7.578 C59.628,9.006 60.72,10.14 62.26,10.14 C63.086,10.14 63.73,9.762 64.066,9.426 L64.066,10 L65.158,10 L65.158,3 L64.038,3 L64.038,7.69 C64.038,8.376 63.226,9.132 62.316,9.132 C61.406,9.132 60.762,8.46 60.762,7.62 L60.762,3 L59.628,3 Z M73.306,5.002 C73.306,4.106 72.55,2.86 71.024,2.86 L70.758,2.86 C69.54,2.86 68.532,3.644 68.532,4.806 C68.532,7.088 72.13,6.612 72.13,8.096 C72.13,8.684 71.584,9.132 70.94,9.132 L70.688,9.132 C69.988,9.132 69.4,8.572 69.4,7.914 L69.4,7.788 L68.28,7.788 L68.28,7.956 C68.28,9.062 69.232,10.14 70.646,10.14 L70.954,10.14 C72.172,10.14 73.278,9.244 73.278,8.124 C73.278,5.59 69.708,6.136 69.708,4.722 C69.708,4.232 70.212,3.868 70.758,3.868 L71.024,3.868 C71.626,3.868 72.144,4.414 72.144,5.002 L73.306,5.002 Z M81.958,10 L81.958,5.422 C81.958,3.994 80.866,2.86 79.326,2.86 C78.5,2.86 77.884,3.224 77.548,3.546 L77.548,0.2 L76.428,0.2 L76.428,10 L77.548,10 L77.548,5.31 C77.548,4.624 78.36,3.868 79.27,3.868 C80.18,3.868 80.824,4.54 80.824,5.38 L80.824,10 L81.958,10 Z M93.172,4.008 L95.552,4.008 L95.552,8.992 L93.172,8.992 L93.172,10 L98.814,10 L98.814,8.992 L96.672,8.992 L96.672,3 L93.172,3 L93.172,4.008 Z M95.412,1.446 L96.7,1.446 L96.7,0.2 L95.412,0.2 L95.412,1.446 Z M102.538,7.886 C102.538,9.132 103.42,10.154 104.946,10.154 L105.086,10.154 C106.682,10.154 107.55,9.132 107.55,7.802 L106.402,7.802 C106.402,8.502 105.828,9.132 105.128,9.132 L104.988,9.132 C104.218,9.132 103.672,8.502 103.672,7.802 L103.672,4.008 L107.228,4.008 L107.228,3 L103.672,3 L103.672,1.012 L102.538,1.012 L102.538,3 L101.25,3 L101.25,4.008 L102.538,4.008 L102.538,7.886 Z" id="don’t-push-it"></path>
                </g>
            </g>
        </g>
    </g>
</svg>